#!OML:ASF E:\acrobat2\Project_11_07_03\Capture day 1\Session 1\Acrobat.ASF
:FULLY-SPECIFIED
:DEGREES
110
root 10.9622 18.0055 -30.1573 28.5313 -87.4782 -24.9606
lowerback -5.75798 0.168542 1.59846
upperback -3.86018 0.0624126 -0.650945
thorax -0.740716 -0.0433655 -1.56152
lowerneck -1.54759 -0.552767 -1.17951
upperneck 2.96647 -0.853311 4.0511
head 1.20588 -0.389583 1.44826
rclavicle -3.67752e-015 -1.47101e-014
rhumerus -10.8929 -30.0377 -10.1069
rradius 19.4111
rwrist 18.4546
rhand -12.151 -46.6571
rfingers 7.12502
rthumb 13.9115 -76.1717
lclavicle -3.67752e-015 -1.47101e-014
lhumerus -0.361011 7.36672 7.91394
lradius 20.2037
lwrist 7.3025
lhand -7.28819 -4.6657
lfingers 7.12502
lthumb 18.5936 24.4657
rfemur 9.26735 15.5946 14.3002
rtibia -2.84479
rfoot -25.9058 -31.581
rtoes 0.505757
lfemur 8.98562 -10.7983 -5.82561
ltibia -3.64385
lfoot -30.5551 8.29725
ltoes 33.4863
111
root 10.962 18.006 -30.1568 27.8267 -87.487 -24.2906
lowerback -5.72942 0.12246 1.55836
upperback -3.89998 0.00221869 -0.625887
thorax -0.799834 -0.0738349 -1.51617
lowerneck -1.44502 -0.536195 -1.24673
upperneck 2.99879 -0.828425 3.99374
head 1.19761 -0.379353 1.44205
rclavicle -2.85753e-015 -4.37326e-015
rhumerus -10.7406 -29.974 -10.1977
rradius 19.4148
rwrist 18.4154
rhand -12.2238 -46.6899
rfingers 7.12502
rthumb 13.8414 -76.2094
lclavicle -2.85753e-015 -4.37326e-015
lhumerus -0.493933 7.38304 7.84422
lradius 20.1718
lwrist 7.127
lhand -7.27952 -4.45854
lfingers 7.12502
lthumb 18.602 24.672
rfemur 9.28281 15.4093 14.2191
rtibia -2.84251
rfoot -25.4455 -31.6025
rtoes -1.30513
lfemur 9.03715 -10.8909 -5.89461
ltibia -3.68377
lfoot -30.4205 8.61308
ltoes 33.0681
112
root 10.9627 18.0068 -30.1561 27.9233 -87.4954 -24.4448
lowerback -5.65608 0.146008 1.61294
upperback -3.93074 0.031805 -0.652831
thorax -0.871243 -0.0614745 -1.573
lowerneck -1.40172 -0.557854 -1.24707
upperneck 3.05985 -0.85894 3.96861
head 1.21001 -0.394975 1.43389
rclavicle -5.81445e-015 1.35174e-014
rhumerus -10.8435 -30.0205 -10.1485
rradius 19.4514
rwrist 18.434
rhand -12.2558 -46.7431
rfingers 7.12502
rthumb 13.8105 -76.2646
lclavicle -5.81445e-015 1.35174e-014
lhumerus -0.397769 7.31199 7.83423
lradius 20.1508
lwrist 7.04452
lhand -7.52073 -4.26103
lfingers 7.12502
lthumb 18.3699 24.8916
rfemur 9.34323 15.4613 14.2438
rtibia -2.82392
rfoot -25.6053 -31.5074
rtoes -0.629303
lfemur 9.07012 -10.6912 -5.84865
ltibia -3.64381
lfoot -30.3189 8.3971
ltoes 33.5214
113
root 10.9637 18.0077 -30.1553 28.1001 -87.51 -24.658
lowerback -5.58967 0.201257 1.65872
upperback -3.94387 0.104457 -0.687579
thorax -0.918815 -0.026918 -1.63099
lowerneck -1.4154 -0.603996 -1.27741
upperneck 3.06687 -0.923236 4.05
head 1.21755 -0.426313 1.46427
rclavicle -7.20594e-016 3.97569e-016
rhumerus -11.0391 -30.1553 -10.0423
rradius 19.5014
rwrist 18.4349
rhand -12.3395 -46.7473
rfingers 7.12502
rthumb 13.7298 -76.2743
lclavicle -7.20594e-016 3.97569e-016
lhumerus -0.227306 6.9422 7.81578
lradius 20.1813
lwrist 7.40309
lhand -8.03042 -4.23527
lfingers 7.12502
lthumb 17.8796 24.9628
rfemur 9.38618 15.5996 14.2883
rtibia -2.80777
rfoot -26.0097 -31.4511
rtoes 0.696307
lfemur 9.07547 -10.449 -5.78977
ltibia -3.57659
lfoot -30.2866 8.03972
ltoes 34.0871
114
root 10.9636 18.0085 -30.1544 27.4507 -87.5384 -24.0343
lowerback -5.55632 0.248657 1.6125
upperback -3.94283 0.17039 -0.682097
thorax -0.933632 0.00705926 -1.59635
lowerneck -1.40505 -0.654304 -1.52898
upperneck 2.98499 -0.989861 4.30343
head 1.19696 -0.459955 1.58809
rclavicle 1.98785e-016 -4.37326e-015
rhumerus -11.1588 -30.0462 -9.89903
rradius 19.5545
rwrist 18.2091
rhand -12.4478 -46.7645
rfingers 7.12502
rthumb 13.6255 -76.2985
lclavicle 1.98785e-016 -4.37326e-015
lhumerus -0.0967867 6.66244 7.87314
lradius 20.1727
lwrist 7.78968
lhand -8.36814 -4.32271
lfingers 7.12502
lthumb 17.5546 24.9047
rfemur 9.41457 15.64 14.2584
rtibia -2.80537
rfoot -26.0329 -31.4745
rtoes 0.835032
lfemur 9.14845 -10.6689 -5.91798
ltibia -3.61506
lfoot -30.5133 8.11722
ltoes 33.8577
115
root 10.9633 18.0087 -30.1533 25.4309 -87.5779 -22.0572
lowerback -5.51679 0.235226 1.49836
upperback -3.97173 0.157063 -0.694476
thorax -0.985993 0.00141638 -1.54567
lowerneck -1.38332 -0.686434 -1.62271
upperneck 3.10689 -1.03901 4.39912
head 1.2353 -0.483844 1.63523
rclavicle -1.46604e-015 4.37326e-015
rhumerus -11.1358 -29.9805 -9.91406
rradius 19.5885
rwrist 18.1392
rhand -12.5386 -46.8463
rfingers 7.12502
rthumb 13.5379 -76.3862
lclavicle -1.46604e-015 4.37326e-015
lhumerus -0.0585766 6.93825 7.9399
lradius 20.0641
lwrist 7.51994
lhand -8.36682 -4.48398
lfingers 7.12502
lthumb 17.5559 24.7434
rfemur 9.45851 15.5881 14.1366
rtibia -2.803
rfoot -25.9145 -31.4374
rtoes 0.615588
lfemur 9.23053 -10.8743 -6.11393
ltibia -3.6496
lfoot -30.6299 8.36988
ltoes 33.0628
116
root 10.963 18.0089 -30.1521 22.5867 -87.6199 -19.2572
lowerback -5.48192 0.236395 1.37013
upperback -3.99124 0.163683 -0.731111
thorax -1.02532 0.00609762 -1.5111
lowerneck -1.33858 -0.719935 -1.59805
upperneck 3.16939 -1.08704 4.38536
head 1.24849 -0.507941 1.62601
rclavicle -1.3418e-015 2.98177e-015
rhumerus -11.1631 -30.2194 -9.90587
rradius 19.5874
rwrist 18.3709
rhand -12.6642 -46.8313
rfingers 7.12502
rthumb 13.4169 -76.3792
lclavicle -1.3418e-015 2.98177e-015
lhumerus 0.0897699 7.85042 8.17261
lradius 19.8969
lwrist 6.58028
lhand -8.30006 -4.63526
lfingers 7.12502
lthumb 17.6201 24.5863
rfemur 9.50395 15.4746 13.9591
rtibia -2.80886
rfoot -25.9746 -31.2908
rtoes 1.09335
lfemur 9.27765 -10.8601 -6.28049
ltibia -3.64146
lfoot -30.6377 8.3703
ltoes 32.9395
117
root 10.9625 18.0089 -30.1501 21.7973 -87.6031 -18.4777
lowerback -5.48904 0.25535 1.35507
upperback -3.99651 0.189265 -0.733153
thorax -1.02588 0.0190553 -1.50359
lowerneck -1.65004 -0.552621 -1.1287
upperneck 3.20606 -0.855252 3.85936
head 1.29703 -0.389226 1.37965
rclavicle -1.27968e-014 5.96354e-016
rhumerus -11.1985 -30.4281 -9.82818
rradius 19.5697
rwrist 18.5482
rhand -12.8286 -46.5885
rfingers 7.12502
rthumb 13.2585 -76.1468
lclavicle -1.27968e-014 5.96354e-016
lhumerus 0.277083 8.88075 8.4583
lradius 19.7739
lwrist 5.53386
lhand -8.14076 -4.66954
lfingers 7.12502
lthumb 17.7734 24.5382
rfemur 9.52742 15.428 13.9206
rtibia -2.81774
rfoot -26.1366 -31.2347
rtoes 1.28341
lfemur 9.21615 -10.5137 -6.20688
ltibia -3.56471
lfoot -30.3172 8.19484
ltoes 32.9774
118
root 10.9623 18.0093 -30.1489 22.8203 -87.5567 -19.4987
lowerback -5.50519 0.225795 1.41903
upperback -4.03313 0.145859 -0.713867
thorax -1.05622 -0.00481334 -1.52163
lowerneck -1.69218 -0.541546 -1.11108
upperneck 3.3677 -0.845635 3.83061
head 1.35489 -0.383019 1.36853
rclavicle 1.36664e-015 -1.19271e-015
rhumerus -11.0885 -30.4677 -9.9004
rradius 19.5476
rwrist 18.6429
rhand -12.9249 -46.4134
rfingers 7.12502
rthumb 13.1656 -75.9777
lclavicle 1.36664e-015 -1.19271e-015
lhumerus 0.253822 9.22766 8.45671
lradius 19.7428
lwrist 5.07113
lhand -7.97471 -4.67119
lfingers 7.12502
lthumb 17.9332 24.522
rfemur 9.53846 15.4683 14.0082
rtibia -2.81354
rfoot -26.1586 -31.3374
rtoes 0.323323
lfemur 9.14957 -10.235 -6.0419
ltibia -3.51798
lfoot -29.9673 8.14696
ltoes 32.9092
119
root 10.9621 18.0101 -30.1489 23.2748 -87.5521 -19.9503
lowerback -5.51889 0.207861 1.44471
upperback -4.06403 0.119598 -0.709878
thorax -1.08145 -0.0193968 -1.53313
lowerneck -1.70627 -0.556931 -1.17086
upperneck 3.50437 -0.872464 3.90308
head 1.40279 -0.395098 1.4024
rclavicle -6.65929e-015 1.39149e-014
rhumerus -11.0192 -30.5815 -9.98234
rradius 19.5365
rwrist 18.8199
rhand -12.8851 -46.5111
rfingers 7.12502
rthumb 13.2039 -76.073
lclavicle -6.65929e-015 1.39149e-014
lhumerus 0.222558 9.25195 8.41267
lradius 19.7335
lwrist 4.97691
lhand -7.91416 -4.71412
lfingers 7.12502
lthumb 17.9914 24.4737
rfemur 9.53703 15.5157 14.0474
rtibia -2.80725
rfoot -26.0875 -31.3802
rtoes 0.00472113
lfemur 9.19631 -10.5058 -6.09819
ltibia -3.58738
lfoot -30.0846 8.37464
ltoes 32.755
